<?xml version="1.0" standalone="no"?>
<!DOCTYPE svg PUBLIC "-//W3C//DTD SVG 20010904//EN"
 "http://www.w3.org/TR/2001/REC-SVG-20010904/DTD/svg10.dtd">
<svg version="1.0" xmlns="http://www.w3.org/2000/svg"
 width="700.000000pt" height="700.000000pt" viewBox="0 0 700.000000 700.000000"
 preserveAspectRatio="xMidYMid meet">
<metadata>
Created by potrace 1.11, written by Peter Selinger 2001-2013
</metadata>
<g transform="translate(0.000000,700.000000) scale(0.100000,-0.100000)"
fill="#000000" stroke="none">
<path d="M1117 6984 c-1 -1 -46 -4 -99 -8 -154 -10 -460 -80 -503 -116 -9 -7
-10 -303 -5 -1497 l0 -113 44 -21 c25 -11 51 -21 58 -23 7 -1 19 -5 26 -9 6
-5 12 -6 12 -3 0 3 12 1 27 -5 154 -58 585 -74 813 -29 216 42 368 139 432
276 26 57 31 80 33 152 4 153 -43 266 -150 364 -26 24 -166 105 -172 100 -2
-1 -9 -2 -15 -2 -7 1 18 16 57 36 146 73 216 195 210 367 -4 103 -9 127 -45
205 -71 153 -241 261 -481 307 -47 9 -236 24 -242 19z m131 -550 c44 -21 74
-68 74 -112 -1 -56 -6 -71 -36 -103 -35 -37 -80 -56 -151 -64 -59 -7 -59 -7
-57 50 0 11 2 66 3 122 3 100 3 103 28 112 40 15 105 13 139 -5z m-13 -540
c111 -46 119 -212 12 -263 -44 -21 -117 -29 -153 -17 -21 6 -22 12 -20 144 0
78 5 140 11 144 16 12 116 7 150 -8z"/>
<path d="M2585 6953 c-38 -7 -112 -35 -163 -60 -74 -36 -110 -62 -170 -122
-98 -97 -103 -104 -162 -214 -49 -94 -93 -218 -105 -297 -4 -25 -8 -47 -10
-50 -13 -20 -19 -194 -11 -300 5 -65 9 -90 26 -167 20 -88 92 -263 112 -271 4
-2 8 -9 8 -15 0 -25 113 -147 183 -200 58 -44 173 -93 257 -111 156 -32 397
-4 527 63 102 52 96 43 110 181 3 36 7 77 7 93 1 15 3 27 6 27 3 0 5 17 6 38
0 20 3 64 7 97 14 116 18 185 12 185 -3 0 -21 -11 -38 -24 -57 -42 -182 -105
-260 -130 -126 -41 -237 -25 -315 47 -24 22 -72 99 -72 115 0 10 33 18 120 28
86 10 105 13 175 24 39 6 88 13 110 16 46 5 71 8 135 18 48 7 89 11 215 22 44
3 82 8 84 10 13 12 18 300 7 374 -35 238 -133 420 -292 540 -113 85 -329 120
-509 83z m249 -542 c28 -23 54 -88 60 -148 5 -49 4 -51 -22 -58 -15 -4 -56 -8
-92 -10 -61 -3 -141 -11 -217 -20 -39 -5 -40 1 -14 72 36 99 101 176 159 189
15 3 32 7 37 8 16 4 68 -15 89 -33z"/>
<path d="M4147 6964 c-1 -1 -33 -4 -72 -7 -107 -10 -325 -82 -325 -109 0 -4
-5 -8 -12 -8 -14 0 -105 -74 -131 -107 -10 -13 -25 -30 -33 -37 -8 -8 -14 -19
-14 -25 0 -6 -4 -11 -9 -11 -15 0 -70 -124 -85 -191 -16 -67 -18 -202 -4 -264
25 -106 106 -223 193 -277 82 -50 156 -69 288 -73 140 -4 183 -13 217 -45 37
-34 38 -69 5 -102 -33 -33 -80 -44 -180 -42 -148 2 -280 31 -395 86 -25 12
-48 22 -52 22 -3 1 -10 4 -14 9 -11 11 -21 9 -22 -5 -13 -142 -22 -222 -26
-238 -5 -16 -17 -144 -20 -199 -1 -41 15 -52 159 -106 219 -82 368 -104 545
-82 306 38 517 210 582 475 17 73 18 243 1 310 -42 164 -160 276 -335 319 -13
3 -91 5 -175 4 -114 -1 -161 2 -188 13 -19 8 -35 19 -36 23 0 4 -2 17 -4 28
-7 35 5 53 53 76 43 21 60 23 192 23 124 -1 159 -5 245 -27 118 -32 120 -32
121 -9 1 9 4 53 9 97 4 44 8 100 10 125 4 53 13 146 21 211 5 45 4 47 -28 62
-43 21 -169 54 -233 62 -110 14 -242 24 -248 19z"/>
<path d="M4804 6920 l-31 -5 -2 -75 c-7 -265 -12 -449 -15 -478 l-2 -32 95 5
c53 3 138 8 189 10 l92 5 1 -37 c0 -21 2 -65 4 -98 2 -33 6 -143 10 -245 4
-102 9 -210 10 -240 2 -30 6 -138 10 -240 9 -215 12 -283 14 -292 0 -3 43 -4
94 -2 80 3 146 6 377 19 25 1 47 3 50 4 3 0 6 13 6 29 1 15 4 104 8 197 4 94
8 220 10 280 2 61 7 182 11 270 4 88 8 207 10 263 2 57 7 108 11 112 5 5 88
12 184 15 96 4 177 8 179 11 3 2 5 53 6 112 1 59 4 173 6 254 2 81 0 150 -4
154 -5 6 -928 8 -1182 3 -22 0 -42 0 -45 1 -14 4 -68 4 -96 0z"/>
<path d="M5768 4435 c-2 -1 -61 -5 -133 -9 -199 -10 -291 -25 -447 -72 l-88
-27 -1 -46 c-1 -25 -3 -91 -4 -146 -2 -55 -6 -228 -9 -385 -3 -157 -8 -373
-11 -480 -3 -107 -7 -297 -9 -422 l-5 -228 268 0 c207 0 268 3 269 13 1 12 6
122 17 362 3 76 7 140 8 141 1 2 35 5 75 7 60 4 74 2 81 -12 5 -9 41 -106 80
-216 112 -310 109 -304 134 -299 37 8 111 23 132 27 66 14 101 21 105 22 3 0
28 5 55 10 28 5 52 9 55 10 3 0 46 9 97 19 l92 18 -12 27 c-6 14 -14 28 -17
31 -5 5 -16 23 -59 103 -46 85 -81 147 -136 244 -74 128 -74 123 -18 163 61
43 137 123 169 176 94 158 106 419 28 591 -95 207 -315 345 -589 369 -33 3
-75 7 -92 8 -18 2 -34 2 -35 1z m77 -449 c54 -23 84 -52 107 -106 25 -57 28
-162 6 -205 -41 -77 -131 -130 -243 -144 -57 -6 -67 -5 -75 9 -5 10 -7 19 -5
22 2 2 7 80 11 173 5 146 9 229 13 257 3 20 134 15 186 -6z"/>
<path d="M473 4357 c-4 -7 -9 -46 -10 -87 -1 -41 -4 -171 -7 -288 l-6 -213 88
5 c48 3 131 8 185 11 76 5 97 3 98 -7 4 -54 8 -128 14 -288 4 -102 9 -212 10
-245 2 -33 6 -136 10 -230 3 -93 8 -201 10 -240 2 -38 4 -87 4 -107 l1 -37 83
4 c45 2 136 7 202 10 103 6 188 11 232 14 6 1 12 9 12 19 -1 22 9 264 16 417
3 66 8 188 11 270 3 83 7 209 10 280 3 72 5 138 5 147 0 10 4 20 8 22 4 3 86
8 182 11 96 4 176 9 179 12 2 2 6 43 7 91 1 48 4 165 6 260 4 125 2 172 -7
173 -76 5 -696 2 -696 -4 0 -5 -5 -5 -11 -1 -7 4 -80 6 -163 5 -167 -2 -156
-2 -244 0 -35 0 -66 -1 -68 -4 -3 -3 -20 -1 -38 3 -19 4 -40 4 -46 0 -7 -4
-26 -4 -41 0 -19 6 -31 5 -36 -3z"/>
<path d="M2470 4344 c-100 -21 -188 -58 -275 -116 -66 -45 -205 -183 -205
-205 0 -7 -4 -13 -10 -13 -25 0 -117 -229 -136 -335 -10 -57 -10 -241 -1 -295
52 -291 265 -534 542 -620 92 -28 131 -33 250 -34 293 0 549 160 688 429 17
33 32 62 32 65 1 3 11 37 23 75 12 39 23 84 26 100 2 17 5 30 6 30 7 0 6 220
-1 265 -19 128 -38 184 -113 327 -24 45 -104 132 -168 181 -53 40 -162 100
-195 107 -10 2 -31 8 -47 14 -16 7 -44 14 -64 17 -19 3 -44 8 -56 11 -50 11
-235 9 -296 -3z m255 -562 c71 -37 117 -106 131 -197 13 -83 6 -133 -27 -202
-84 -173 -311 -188 -405 -27 -105 178 -32 405 141 444 51 12 118 4 160 -18z"/>
<path d="M4424 4221 c-1 -116 -7 -243 -19 -416 -6 -90 -30 -252 -51 -345 -8
-36 -17 -76 -20 -90 -18 -82 -95 -229 -121 -230 -6 0 -13 -5 -15 -12 -3 -7
-22 -12 -47 -12 -53 0 -72 22 -97 109 -17 61 -23 269 -10 352 3 21 8 58 11 83
3 25 10 71 16 102 5 32 12 70 15 85 3 16 7 36 10 46 3 10 7 30 9 45 2 15 11
54 20 87 9 33 18 69 20 79 3 10 9 33 14 50 6 17 13 42 16 56 2 14 7 36 11 50
l5 26 -108 1 c-102 1 -408 11 -408 13 0 1 -21 2 -47 3 l-46 2 -16 -70 c-9 -38
-18 -83 -21 -100 -3 -16 -7 -40 -9 -52 -3 -12 -7 -49 -11 -82 -3 -33 -7 -68
-9 -78 -4 -17 -12 -109 -22 -243 -6 -82 -6 -385 0 -425 15 -101 108 -328 142
-348 8 -4 14 -13 14 -20 0 -16 118 -129 168 -161 134 -85 335 -93 446 -18 74
50 69 51 61 -19 -3 -35 -9 -76 -11 -91 l-4 -28 77 5 c43 3 101 7 128 10 93 8
230 18 267 19 21 1 38 3 39 6 0 3 2 12 3 20 2 8 6 53 10 100 6 81 9 110 21
245 3 33 7 87 10 120 3 33 7 83 10 110 3 28 7 75 10 105 10 129 16 197 20 230
4 35 13 118 20 200 6 61 15 145 21 200 9 79 12 104 19 165 3 33 8 76 11 95 10
84 16 136 18 144 0 6 -111 11 -284 11 l-285 2 -1 -136z"/>
<path d="M5711 1853 c-93 -23 -175 -76 -262 -167 -18 -19 -19 -17 -16 75 l2
94 -100 -1 c-101 -1 -418 -16 -481 -23 -5 0 -11 -22 -11 -48 0 -43 -4 -146
-18 -473 -4 -88 -12 -253 -20 -410 -2 -36 -4 -65 -5 -65 0 0 -3 -43 -5 -95 -4
-118 -15 -330 -20 -390 -2 -25 -5 -75 -6 -112 -1 -38 -5 -68 -8 -68 -5 0 -79
246 -141 470 -10 36 -35 121 -55 190 -20 69 -39 132 -40 140 -2 8 -4 15 -5 15
-1 0 -3 7 -5 15 -2 8 -11 40 -20 70 -9 30 -24 84 -34 120 -26 92 -89 309 -100
345 -5 17 -21 73 -36 125 -15 52 -33 111 -40 130 l-13 35 -78 -1 c-44 -1 -131
-4 -194 -8 -63 -3 -169 -9 -235 -12 -176 -9 -173 -8 -183 -19 -5 -6 -35 -98
-67 -205 -31 -107 -80 -269 -107 -360 -28 -91 -56 -185 -63 -210 -7 -25 -32
-108 -55 -185 -23 -77 -44 -149 -47 -160 -3 -11 -7 -27 -10 -35 -3 -8 -7 -20
-8 -26 -2 -6 -17 -56 -33 -110 -68 -221 -102 -337 -102 -353 0 -12 10 -16 38
-17 49 -2 183 -13 209 -18 12 -3 57 -8 100 -11 43 -4 94 -8 113 -10 19 -2 65
-7 102 -10 l67 -7 7 29 c3 15 12 53 19 83 7 30 18 81 25 113 l13 57 141 0 142
0 14 -47 c8 -27 15 -52 16 -58 1 -5 12 -47 25 -93 l22 -83 56 6 c31 3 68 8 82
10 33 6 91 14 154 20 62 7 113 14 145 20 13 2 48 7 78 10 30 3 67 7 82 10 25
4 26 3 22 -31 l-4 -35 138 5 c77 3 198 9 269 12 72 3 151 7 177 8 25 0 49 4
52 7 3 3 8 140 11 305 13 744 18 804 68 912 40 87 125 122 162 65 45 -68 60
-180 59 -428 0 -180 -3 -239 -19 -370 -2 -22 -7 -62 -10 -90 -3 -27 -7 -59 -9
-70 -5 -26 -15 -90 -22 -140 -3 -22 -10 -66 -15 -99 -6 -32 -8 -61 -5 -64 4
-3 102 -7 219 -9 116 -1 274 -4 350 -6 l138 -2 6 25 c9 34 10 893 1 1000 -4
47 -11 110 -17 140 -6 30 -12 66 -15 80 -5 31 -25 108 -36 135 -58 152 -102
218 -185 282 -101 76 -245 107 -364 76z m-1772 -731 c-1 -9 4 -35 10 -57 13
-50 71 -314 71 -324 0 -4 -39 -7 -87 -7 -106 1 -102 -13 -58 186 25 112 25
113 31 145 3 17 7 37 9 45 2 8 4 21 4 28 1 20 20 4 20 -16z"/>
<path d="M2061 1823 c1 -16 -2 -149 -6 -298 -3 -148 -8 -358 -10 -465 -3 -107
-7 -323 -11 -480 -10 -449 -10 -515 2 -513 5 1 50 4 100 8 49 3 109 7 134 10
25 2 81 7 125 10 44 3 105 8 135 10 88 7 212 17 255 20 112 8 261 20 287 24 4
1 6 9 6 19 0 9 2 46 6 82 4 36 9 88 11 115 6 61 13 128 21 198 12 103 11 137
-6 138 -8 0 -121 1 -250 2 l-235 2 1 40 c1 36 9 147 20 275 2 25 6 74 9 110 9
118 15 194 20 250 16 188 23 271 31 388 l5 82 -325 0 -326 0 1 -27z"/>
<path d="M1097 1824 c-1 -1 -43 -5 -92 -8 -50 -4 -102 -8 -115 -11 -14 -2 -47
-6 -74 -10 -27 -3 -52 -8 -55 -10 -3 -1 -22 -6 -41 -9 -116 -19 -200 -46 -201
-65 -4 -47 -13 -1621 -10 -1672 1 -15 31 -16 291 -16 l290 0 2 266 3 266 45 2
c25 0 47 2 50 3 3 0 32 3 64 6 62 5 217 38 251 53 11 5 40 17 65 26 173 64
307 196 361 355 28 83 34 242 13 333 -34 143 -128 276 -250 350 -41 25 -164
86 -164 81 0 -2 -12 1 -27 7 -28 11 -44 15 -92 25 -14 3 -27 7 -31 9 -12 7
-277 25 -283 19z m235 -532 c50 -31 71 -74 70 -145 0 -49 -5 -67 -29 -101 -51
-72 -120 -106 -219 -106 l-50 0 3 38 c1 20 5 96 7 167 3 72 5 138 5 148 1 10
5 16 10 12 5 -3 12 -2 15 3 2 4 22 9 42 10 21 2 40 4 42 6 7 8 73 -13 104 -32z"/>
</g>
</svg>
